<svg viewBox="0 0 24 24" fill="none" xmlns="http://www.w3.org/2000/svg">
    <g id="SVGRepo_bgCarrier" stroke-width="0"></g>
    <g id="SVGRepo_tracerCarrier" stroke-linecap="round" stroke-linejoin="round"></g>
    <g id="SVGRepo_iconCarrier">
        <path d="M12 3H6C4.93913 3 3.92172 3.42149 3.17157 4.17163C2.42142 4.92178 2 5.93913 2 7V14C2 15.0609 2.42142 16.0783 3.17157 16.8285C3.92172 17.5786 4.93913 18 6 18H8L10.29 20.29C10.514 20.5156 10.7804 20.6946 11.0739 20.8168C11.3674 20.9389 11.6821 21.0018 12 21.0018C12.3179 21.0018 12.6326 20.9389 12.9261 20.8168C13.2196 20.6946 13.486 20.5156 13.71 20.29L16 18H18C19.0609 18 20.0783 17.5786 20.8284 16.8285C21.5786 16.0783 22 15.0609 22 14V11.6901"
              stroke="#000000" stroke-width="1.5" stroke-linecap="round" stroke-linejoin="round"></path>
        <path d="M19.1191 0.800049L20.5392 3.06005L23.1191 3.71005L21.4091 5.75005L21.5992 8.41005L19.1191 7.41005L16.6491 8.41005L16.8391 5.75005L15.1191 3.71005L17.7091 3.06005L19.1191 0.800049Z"
              stroke="#000000" stroke-width="1.5" stroke-linecap="round" stroke-linejoin="round"></path>
    </g>
</svg>